<svg xmlns="http://www.w3.org/2000/svg" width="256" height="256"><path fill-opacity=".016" d="M0 128.004v128.004l128.25-.254 128.25-.254.254-127.75L257.008 0H0v128.004m.485.496c0 70.4.119 99.053.265 63.672.146-35.38.146-92.98 0-128C.604 29.153.485 58.1.485 128.5" fill="#1976D2" fill-rule="evenodd"/><path fill-opacity=".075" d="M104.597 1.607c-32.523 5.873-64.71 27.094-82.96 54.696C6.386 79.369 0 100.558 0 128.096c0 35.342 12.47 65.447 37.464 90.44C62.198 243.27 92.743 256 127.359 256c35.887 0 66.147-12.434 91.177-37.464 18.919-18.919 31.854-43.431 35.65-67.558.691-4.388 1.606-7.978 2.035-7.978.428 0 .772-7.312.764-16.25-.009-8.937-.362-15.705-.786-15.038-.437.689-1.308-2.213-2.019-6.729-3.79-24.086-16.738-48.613-35.644-67.519-19.019-19.02-40.522-30.469-66.782-35.559-11.913-2.31-35.204-2.457-47.157-.298m11.903.398C73.178 5.891 34.319 32.516 14.568 71.846 7.786 85.35 2.225 105.871 1.827 118.86l-.172 5.64L1 118c-.443-4.393-.655-1.152-.655 10s.212 14.393.655 10l.655-6.5.172 5.119c.452 13.385 5.938 34.007 12.53 47.096 8.06 16.007 22.323 33.504 36.116 44.309 11.782 9.229 29.829 18.192 44.237 21.97 12.214 3.203 19.732 4.117 33.764 4.104 34.593-.031 63.964-12.279 88.655-36.969 14.816-14.817 24.526-30.264 30.88-49.129 8.132-24.144 8.135-55.784.008-80C231.999 40.279 188.976 6.459 138.61 2.001c-6.11-.541-11.785-.923-12.61-.849l-9.5.853m-9.578 4.547c-33.105 5.995-62.78 25.362-81.139 52.955C11.783 80.548 5 102.74 5 127.5c0 32.001 11.914 61.775 33.949 84.841 25.704 26.907 64.216 41.51 99.468 37.714 30.631-3.298 55.242-14.825 76.027-35.611 20.786-20.785 32.313-45.396 35.611-76.027 2.255-20.943-1.97-43.427-12.032-64.035-17.84-36.537-50.279-60.881-90.404-67.841-10.795-1.873-30.324-1.868-40.697.011m9.263 70.147l-30.314 27.594 4.283 4.364c2.356 2.4 4.582 4.247 4.947 4.103.365-.143 13.412-11.51 28.994-25.26 15.581-13.75 29.12-25.675 30.086-26.5 1.644-1.404 1.455-1.832-2.962-6.698l-4.719-5.197-30.315 27.594m55.315 45.55c0 17.695-.061 18.241-2 17.92-6.16-1.019-9.499-.448-15.225 2.604-7.434 3.962-10.189 4.025-16.694.381-8.015-4.49-9.338-4.537-17.491-.63-3.989 1.912-8.454 3.476-9.921 3.475-1.468 0-5.594-1.39-9.169-3.088-6.224-2.956-8.756-3.254-15-1.768-1.292.307-1.5-2.179-1.5-17.894v-18.25h-6.621l-6.62.001-18.326 31.75c-10.079 17.463-19.181 33.213-20.228 35L30.802 175H84.05l.898-2.364c1.773-4.661 9.028-4.915 17.052-.597 3.025 1.629 6.445 2.961 7.601 2.961 2.971 0 8.42-1.973 11.639-4.214 4.887-3.403 8.721-3.34 15.835.259 7.815 3.952 11.01 3.95 18.862-.013 3.303-1.668 7.269-3.032 8.812-3.032 3.468 0 7.568 2.732 6.862 4.573-.433 1.128 4.149 1.413 26.433 1.646 14.827.154 26.845.017 26.707-.306-.138-.323-9.251-16.182-20.251-35.243l-20-34.656-6.5-.008-6.5-.007v18.25M156 147.085c-7.813 3.79-12.151 3.886-18.987.421-6.555-3.321-11.216-3.204-18.013.455-6.967 3.749-10.097 3.762-17.525.07-6.748-3.352-10.251-3.715-14.525-1.505-2.298 1.188-2.95 2.206-2.95 4.607 0 2.536.309 2.956 1.75 2.375 5.026-2.026 9.021-1.681 16.001 1.383 3.896 1.71 7.909 3.109 8.917 3.108 1.007 0 4.685-1.35 8.172-3 7.96-3.766 11.372-3.763 19.32.013 7.237 3.439 8.552 3.354 18.609-1.206 5.89-2.671 7.032-2.883 10.294-1.905 4.958 1.485 4.937 1.493 4.937-1.779 0-3.47-1.371-4.742-6-5.567-2.729-.486-4.932.071-10 2.53m-30.5 9.897c-1.65.401-5.205 1.918-7.899 3.373-6.202 3.348-7.683 3.314-15.441-.356-10.233-4.841-18.16-3.46-18.16 3.165 0 2.534.296 2.919 1.75 2.273 4.439-1.971 9.967-1.614 15.074.974 6.554 3.321 11.784 3.328 18.302.025 6.553-3.321 11.516-3.335 18.223-.054 6.924 3.388 10.276 3.3 18.369-.484 6.49-3.034 9.596-3.328 14.532-1.376 1.43.566 1.75.147 1.75-2.293 0-6.448-6.953-7.88-16.256-3.348-7.646 3.725-11.946 3.915-17.845.786-5.546-2.942-8.607-3.605-12.399-2.685" fill="#1976D2" fill-rule="evenodd"/><path fill-opacity=".246" d="M106.5 1.595C59.513 9.908 20.893 43.359 6.167 88.5c-18.81 57.659 5.922 121.01 58.989 151.1 9.544 5.411 21.558 10.115 33.57 13.143 9.905 2.497 12.306 2.712 29.774 2.659 18.007-.055 19.621-.222 30.883-3.195 37.14-9.804 67.095-34.405 83.805-68.824C249.116 171.171 255 151.75 255 144.393c0-1.866.45-3.393 1-3.393.621 0 .994-5.406.985-14.25-.011-9.57-.334-13.757-.985-12.75-.728 1.126-.974.628-.986-2-.021-4.502-4.259-22.009-7.032-29.053-17.092-43.41-53.81-73.603-98.908-81.332-11.491-1.969-31.505-1.978-42.574-.02m5.135.54C73.078 7.086 38.307 30.294 18.197 64.5c-7.992 13.594-14.52 32.905-15.888 47-.508 5.23-.861 6.368-1.395 4.5-.393-1.375-.715 4.025-.715 12s.322 13.375.715 12c.544-1.904.867-.95 1.354 4 2.508 25.487 16.427 53.761 36.199 73.533 49.588 49.588 129.469 49.585 179.06-.006 42.893-42.893 49.446-109.298 15.778-159.899-26.465-39.776-74.272-61.58-121.67-55.493m.865 3.999c-21.292 2.681-42.821 11.612-60.069 24.92C39.814 40.787 25.154 58.723 17.736 73.5 8.035 92.827 3.408 119.12 5.914 140.675c5.545 47.701 37.28 87.561 81.691 102.607 37.62 12.745 76.271 7.594 109.395-14.579 9.621-6.441 25.262-22.082 31.703-31.703 30.667-45.812 28.305-103.326-6.014-146.453C196.887 18.124 154.135.892 112.5 6.134m3.971 69.987c-16.484 14.917-30.088 27.418-30.231 27.781-.144.364 1.728 2.613 4.159 4.999 3.977 3.903 4.611 4.201 6.315 2.969 1.041-.754 14.795-12.785 30.564-26.737 25.301-22.387 28.527-25.571 27.446-27.098-1.608-2.271-7.576-9.035-7.972-9.035-.17 0-13.796 12.204-30.281 27.121M51.48 138.569c-10.989 19.013-20.13 34.988-20.313 35.5-.201.56 10.433.931 26.68.931h27.014l.319-2.25c.283-1.99.978-2.284 6.008-2.548 4.51-.236 6.731.23 10.717 2.25 6.551 3.32 10.624 3.215 17.595-.452 7.164-3.768 10.696-3.768 18.66-.001 3.487 1.65 7.281 3 8.43 3 1.15.001 4.843-1.374 8.207-3.056 4.77-2.383 7.164-2.989 10.87-2.75 4.132.267 4.829.634 5.337 2.807l.585 2.5 26.819.267c25.121.249 26.776.156 26.152-1.472-.367-.955-9.465-16.938-20.217-35.516L184.792 104H171v18.535c0 18.015-.054 18.506-1.934 17.5-3.352-1.794-8.383-1.1-13.84 1.909-8.226 4.535-9.772 4.585-17.898.582-3.936-1.939-7.926-3.526-8.867-3.526-.94 0-5.198 1.575-9.461 3.5s-8.37 3.5-9.126 3.499c-.756 0-4.299-1.394-7.874-3.097-5.511-2.624-7.299-3.016-11.75-2.571l-5.25.524V104H71.461L51.48 138.569m36.27 7.561c-2.25.848-2.75 1.649-2.75 4.402v3.366l3.586-1.498c3.917-1.637 6.588-1.135 13.957 2.622 5.425 2.766 10.233 2.478 17.617-1.056 7.228-3.459 10.158-3.359 18.002.616 6.239 3.162 9.57 3.05 17.338-.582 6.897-3.224 8.939-3.544 12.935-2.025 2.439.927 2.565.81 2.565-2.393 0-5.635-6.292-6.251-16.16-1.583-7.896 3.735-9.906 3.739-17.365.032-3.286-1.632-7.291-2.982-8.9-3-1.609-.017-6.199 1.586-10.2 3.563-6.799 3.36-7.522 3.515-11.075 2.379-2.09-.669-5.15-2.023-6.8-3.01-3.929-2.351-9.319-3.126-12.75-1.833M161 156.961c-1.375.446-4.975 1.983-8 3.415-3.025 1.432-6.175 2.609-7 2.613-.825.005-4.425-1.381-8-3.081-7.695-3.658-13.763-3.637-18.964.066-5.184 3.692-10.443 3.726-18.036.117-7.058-3.354-9.545-3.711-13.453-1.93-1.89.861-2.547 1.92-2.547 4.107 0 2.397.326 2.82 1.75 2.269 4.942-1.912 7.354-1.677 13.816 1.347 8.266 3.868 10.633 3.883 18.594.117 7.927-3.75 10.412-3.75 17.84-.001 3.269 1.65 7.137 3 8.596 3 1.459 0 6.174-1.59 10.479-3.534 7.535-3.402 7.959-3.478 11.376-2.051l3.549 1.483v-3.39c0-1.864-.338-3.589-.75-3.831-1.802-1.061-6.955-1.459-9.25-.716" fill="#1976D2" fill-rule="evenodd"/><path fill-opacity=".314" d="M122.75.737c2.888.202 7.613.202 10.5 0 2.887-.202.525-.367-5.25-.367s-8.138.165-5.25.367m-12.5.952c.963.252 2.537.252 3.5 0 .963-.251.175-.457-1.75-.457s-2.713.206-1.75.457m32 0c.963.252 2.537.252 3.5 0 .963-.251.175-.457-1.75-.457s-2.713.206-1.75.457m-38.5.973c.688.278 1.813.278 2.5 0 .688-.277.125-.504-1.25-.504s-1.937.227-1.25.504m46 0c.688.278 1.813.278 2.5 0 .688-.277.125-.504-1.25-.504s-1.937.227-1.25.504M99.813 3.683c.721.289 1.584.253 1.916-.079.332-.332-.258-.568-1.312-.525-1.165.048-1.402.285-.604.604m55 0c.721.289 1.584.253 1.916-.079.332-.332-.258-.568-1.312-.525-1.165.048-1.402.285-.604.604m-59 1c.721.289 1.584.253 1.916-.079.332-.332-.258-.568-1.312-.525-1.165.048-1.402.285-.604.604m63 0c.721.289 1.584.253 1.916-.079.332-.332-.258-.568-1.312-.525-1.165.048-1.402.285-.604.604m-67 1c.721.289 1.584.253 1.916-.079.332-.332-.258-.568-1.312-.525-1.165.048-1.402.285-.604.604m71 0c.721.289 1.584.253 1.916-.079.332-.332-.258-.568-1.312-.525-1.165.048-1.402.285-.604.604m-57.216 1.924c-43.08 7.779-79.602 39.461-93.577 81.175C7.852 101.221 6 113.318 6 128.096c0 34.035 12.66 63.832 37.155 87.444C56.208 228.123 70.347 236.903 87 242.766c44.476 15.658 93.711 4.501 126.989-28.777 33.179-33.178 44.426-82.619 28.847-126.803-10.437-29.601-32.109-54.272-59.946-68.241-11.887-5.966-19.522-8.586-32.175-11.044-11.819-2.296-33.26-2.436-45.118-.294M81 9c-.825.533-1.05.969-.5.969S82.175 9.533 83 9c.825-.533 1.05-.969.5-.969S81.825 8.467 81 9m92 0c.825.533 1.95.969 2.5.969s.325-.436-.5-.969c-.825-.533-1.95-.969-2.5-.969s-.325.436.5.969M70.75 13.563C67.037 15.469 64 17.252 64 17.526c0 .447 13.9-6.21 14.917-7.143 1.367-1.257-2.323.181-8.167 3.18m106.333-3.18c1.018.935 14.917 7.59 14.917 7.142 0-.558-13.555-7.525-14.642-7.525-.38 0-.504.172-.275.383M60.441 19.555c-1.864 1.494-1.852 1.512.309.465 1.237-.6 2.25-1.3 2.25-1.555 0-.765-.519-.544-2.559 1.09M193 18.302c0 .228 2.588 2.076 5.75 4.106s4.519 2.645 3.015 1.366C198.796 21.25 193 17.632 193 18.302m-142.013 7.61c-7.618 5.722-22.142 20.527-26.82 27.338-1.795 2.612-3.038 4.75-2.763 4.75.275 0 1.97-2.138 3.767-4.75 4.813-6.998 18.353-20.759 26.079-26.505 5.901-4.389 7.47-5.773 6.5-5.735-.138.005-3.181 2.211-6.763 4.902m160.716 6.38c3.417 3.185 9.002 8.81 12.41 12.5 3.408 3.689 4.81 4.908 3.116 2.708-3.123-4.055-16.06-16.864-19.735-19.54-1.103-.803.791 1.146 4.209 4.332M116 76.028l-30.5 27.863-7.384.304-7.385.305-19.96 34.5c-10.979 18.975-20.192 35.063-20.473 35.75-.402.982 5.292 1.25 26.54 1.25h27.053l1.312-2.75c1.938-4.06 8.733-4.334 15.978-.646 7.229 3.681 12.076 3.571 19.178-.437 6.952-3.924 9.155-3.946 16.641-.167 3.409 1.721 7.519 3 9.641 3 2.26 0 5.763-1.166 9.013-3 7.694-4.342 15.346-4.04 15.346.607V175h55.198l-1.9-3.25c-1.044-1.787-10.385-17.988-20.756-36L184.684 103H171v36.665l-5.456-.453c-4.732-.392-6.191-.038-10.985 2.668-6.864 3.874-10.481 3.89-17.559.081-6.918-3.724-10.969-3.706-18 .078-6.96 3.746-10.155 3.719-18.434-.155-6.462-3.024-8.874-3.259-13.816-1.347-1.628.63-1.75-.604-1.75-17.642v-18.32l4.908 4.834 4.908 4.835 30.342-26.811c16.688-14.745 30.447-27.288 30.575-27.872.129-.583-1.896-3.386-4.5-6.229l-4.733-5.167L116 76.028M233.592 57.25c2.03 3.163 3.878 5.75 4.106 5.75.67 0-2.948-5.796-5.472-8.765-1.279-1.504-.664-.148 1.366 3.015M19 61c-.589 1.1-.845 2-.57 2s.981-.9 1.57-2c.589-1.1.845-2 .57-2s-.981.9-1.57 2m-5.552 10.102c-1.967 3.907-3.413 7.266-3.214 7.465.199.2 2.024-2.997 4.056-7.102C16.321 67.359 17.768 64 17.504 64c-.263 0-2.088 3.196-4.056 7.102m227.76-.634c1.754 3.557 3.355 6.303 3.556 6.101.447-.447-5.599-12.569-6.269-12.569-.262 0 .959 2.911 2.713 6.468M8.624 81.539c-.965 2.514-.681 3.163.498 1.136.584-1.004.851-2.036.593-2.293-.257-.258-.749.263-1.091 1.157M246.573 82c.368 1.375 1.086 3.175 1.596 4 .644 1.042.723.737.258-1-.368-1.375-1.086-3.175-1.596-4-.644-1.042-.723-.737-.258 1M5.079 92.583c.048 1.165.285 1.402.604.605.289-.722.253-1.585-.079-1.917-.332-.332-.568.258-.525 1.312m245 0c.048 1.165.285 1.402.604.605.289-.722.253-1.585-.079-1.917-.332-.332-.568.258-.525 1.312m-246 4c.048 1.165.285 1.402.604.605.289-.722.253-1.585-.079-1.917-.332-.332-.568.258-.525 1.312m247 0c.048 1.165.285 1.402.604.605.289-.722.253-1.585-.079-1.917-.332-.332-.568.258-.525 1.312m-248 4c.048 1.165.285 1.402.604.605.289-.722.253-1.585-.079-1.917-.332-.332-.568.258-.525 1.312m249 0c.048 1.165.285 1.402.604.605.289-.722.253-1.585-.079-1.917-.332-.332-.568.258-.525 1.312M2.158 105c0 1.375.227 1.938.504 1.25.278-.687.278-1.812 0-2.5-.277-.687-.504-.125-.504 1.25m251 1c0 1.375.227 1.938.504 1.25.278-.687.278-1.812 0-2.5-.277-.687-.504-.125-.504 1.25M1.232 112c0 1.925.206 2.713.457 1.75.252-.963.252-2.537 0-3.5-.251-.963-.457-.175-.457 1.75m252.963.5c.02 1.65.244 2.204.498 1.231.254-.973.237-2.323-.037-3-.274-.677-.481.119-.461 1.769M.37 128c0 5.775.165 8.137.367 5.25.202-2.887.202-7.612 0-10.5S.37 122.225.37 128m254.995-.5c.003 5.5.171 7.622.373 4.716.203-2.905.201-7.405-.004-10-.206-2.594-.371-.216-.369 5.284M1.232 144c0 1.925.206 2.713.457 1.75.252-.963.252-2.537 0-3.5-.251-.963-.457-.175-.457 1.75m252.963-.5c.02 1.65.244 2.204.498 1.231.254-.973.237-2.323-.037-3-.274-.677-.481.119-.461 1.769M125.5 145.957c-1.65.415-5.205 1.943-7.899 3.398-6.202 3.348-7.683 3.314-15.441-.356-9.526-4.506-17.16-3.775-17.16 1.643 0 2.041.361 2.432 1.75 1.895 4.786-1.852 7.243-1.612 14.029 1.366 3.881 1.703 8.178 3.097 9.549 3.097 1.371 0 5.345-1.35 8.832-2.999 7.961-3.766 10.741-3.756 18.823.067 7.414 3.508 9.926 3.402 18.231-.769 5.308-2.667 8.561-3.137 12.536-1.815 1.954.651 2.25.402 2.25-1.892 0-1.915-.705-2.91-2.565-3.617-4.081-1.551-6.534-1.167-12.935 2.025-3.3 1.646-7.575 2.992-9.5 2.992-1.925 0-6.2-1.346-9.5-2.992-6.397-3.19-6.413-3.193-11-2.043M253.158 150c0 1.375.227 1.938.504 1.25.278-.687.278-1.812 0-2.5-.277-.687-.504-.125-.504 1.25m-251 1c0 1.375.227 1.938.504 1.25.278-.687.278-1.812 0-2.5-.277-.687-.504-.125-.504 1.25m.921 4.583c.048 1.165.285 1.402.604.605.289-.722.253-1.585-.079-1.917-.332-.332-.568.258-.525 1.312m249 0c.048 1.165.285 1.402.604.605.289-.722.253-1.585-.079-1.917-.332-.332-.568.258-.525 1.312m-127.389 2.118c-.995.258-4.303 1.78-7.351 3.384-3.048 1.603-6.284 2.915-7.191 2.914-.906 0-4.501-1.35-7.988-3-6.673-3.157-13.799-3.96-15.96-1.799-.66.66-1.2 2.251-1.2 3.535 0 1.999.279 2.186 1.934 1.3 3.296-1.764 7.954-1.156 15.066 1.965 3.759 1.65 7.56 3 8.446 3 .886 0 4.285-1.35 7.554-3 7.478-3.775 12.356-3.867 19.269-.364 6.835 3.464 10.863 3.336 18.646-.593 6.212-3.136 8.464-3.39 13.335-1.506 1.427.552 1.75.126 1.75-2.313 0-5.193-6.7-5.7-16.16-1.225-7.912 3.743-10.092 3.743-18 .002-6.116-2.894-8.279-3.303-12.15-2.3M4.079 159.583c.048 1.165.285 1.402.604.605.289-.722.253-1.585-.079-1.917-.332-.332-.568.258-.525 1.312m247 0c.048 1.165.285 1.402.604.605.289-.722.253-1.585-.079-1.917-.332-.332-.568.258-.525 1.312m-246 4c.048 1.165.285 1.402.604.605.289-.722.253-1.585-.079-1.917-.332-.332-.568.258-.525 1.312m244.492.988c-.367 1.466-.475 2.858-.24 3.094.236.235.73-.771 1.098-2.236.367-1.466.475-2.858.24-3.094-.236-.235-.73.771-1.098 2.236m-2.46 7.54c-.616 1.767-.945 3.388-.731 3.602.214.214.893-1.057 1.509-2.824.616-1.767.945-3.388.731-3.602-.214-.214-.893 1.057-1.509 2.824m-239.08.389c0 .55.436 1.675.969 2.5.533.825.969 1.05.969.5S9.533 173.825 9 173c-.533-.825-.969-1.05-.969-.5M10 177.358C10 178.445 16.967 192 17.525 192c.275 0-1.133-3.262-3.13-7.25-3.745-7.481-4.395-8.574-4.395-7.392m231.208 8.174c-1.754 3.557-2.975 6.468-2.713 6.468.67 0 6.716-12.122 6.269-12.569-.201-.202-1.802 2.544-3.556 6.101M18.615 194.25c5.795 9.879 19.73 25.895 28.742 33.033 2.135 1.69-1.479-2.294-8.029-8.855-6.551-6.56-13.857-14.965-16.237-18.678-2.379-3.713-4.525-6.75-4.767-6.75-.243 0-.112.563.291 1.25m213.814 6c-6.817 10.039-19.765 23.249-29.639 30.24-9.09 6.437-11.411 8.33-8.181 6.673 5.188-2.663 18.544-13.561 25.455-20.771 7.545-7.873 19.269-23.392 17.672-23.392-.211 0-2.599 3.262-5.307 7.25M54.235 232.226c2.969 2.524 8.765 6.142 8.765 5.472 0-.228-2.587-2.076-5.75-4.106s-4.519-2.645-3.015-1.366m9.765 6.27c0 .668 14.122 7.716 14.567 7.27.2-.199-2.997-2.024-7.102-4.056-4.106-2.031-7.465-3.478-7.465-3.214m121 3.004c-3.575 1.872-6.15 3.425-5.721 3.451 1.063.067 12.721-5.859 12.721-6.465 0-.673.235-.773-7 3.014M81 247c.825.533 1.95.969 2.5.969s.325-.436-.5-.969c-.825-.533-1.95-.969-2.5-.969s-.325.436.5.969m90.5.535c-2.501 1.205-2.584 1.343-.5.834 2.834-.692 6.018-2.316 4.5-2.293-.55.008-2.35.664-4 1.459m-8 2.465c-1.261.542-1.445.859-.5.859.825 0 2.4-.386 3.5-.859 1.261-.542 1.445-.859.5-.859-.825 0-2.4.386-3.5.859m-71.687.683c.721.289 1.584.253 1.916-.079.332-.332-.258-.568-1.312-.525-1.165.048-1.402.285-.604.604m4 1c.721.289 1.584.253 1.916-.079.332-.332-.258-.568-1.312-.525-1.165.048-1.402.285-.604.604m63 0c.721.289 1.584.253 1.916-.079.332-.332-.258-.568-1.312-.525-1.165.048-1.402.285-.604.604m-59 1c.721.289 1.584.253 1.916-.079.332-.332-.258-.568-1.312-.525-1.165.048-1.402.285-.604.604m55 0c.721.289 1.584.253 1.916-.079.332-.332-.258-.568-1.312-.525-1.165.048-1.402.285-.604.604m-50.063.979c.688.278 1.813.278 2.5 0 .688-.277.125-.504-1.25-.504s-1.937.227-1.25.504m44 0c.688.278 1.813.278 2.5 0 .688-.277.125-.504-1.25-.504s-1.937.227-1.25.504m-37.481 1.031c.973.254 2.323.237 3-.037.677-.274-.119-.481-1.769-.461-1.65.02-2.204.244-1.231.498m31 0c.973.254 2.323.237 3-.037.677-.274-.119-.481-1.769-.461-1.65.02-2.204.244-1.231.498m-19.519 1.044c2.888.202 7.613.202 10.5 0 2.887-.202.525-.367-5.25-.367s-8.138.165-5.25.367" fill="#1976D2" fill-rule="evenodd"/></svg>