<?xml version="1.0" encoding="utf-8"?>
<!-- Generator: Adobe Illustrator 23.0.3, SVG Export Plug-In . SVG Version: 6.00 Build 0)  -->
<svg version="1.1" id="Слой_1" xmlns="http://www.w3.org/2000/svg" xmlns:xlink="http://www.w3.org/1999/xlink" x="0px" y="0px"
	 viewBox="0 0 70 70" style="enable-background:new 0 0 70 70;" xml:space="preserve">
<style type="text/css">
	.st0{fill:#D24A43;}
	.st1{fill:#4990D0;}
	.st2{fill:#D14B43;}
	.st3{fill:#DB736E;}
	.st4{fill:#F5D846;}
	.st5{fill:#F2D747;}
	.st6{fill:#F2D647;}
	.st7{fill:#F2D847;}
	.st8{fill:#F1D647;}
</style>
<g>
	<path class="st0" d="M70,47.3V70l0,0H0V47.3C0,47.3,59.7,47.3,70,47.3z"/>
	<path class="st1" d="M0,47.4C0,40,0,32.6,0,25.2c23.3,0,46.7,0,70,0c0,7.4,0,14.8,0,22.2H0z"/>
</g>
<rect class="st2" width="70" height="70"/>
<g>
	<path class="st2" d="M6.9,87c0-24.8,0-49.5,0-74.3c0-1.5,0.2-2,1.9-2c37.1,0.1,74.2,0.1,111.3,0c1.7,0,1.9,0.5,1.9,2
		c0,24.8,0,49.5,0,74.3c-0.7,0.4-1.5,0.2-2.3,0.2c-36.8,0-73.6,0-110.4,0C8.5,87.2,7.7,87.4,6.9,87z"/>
	<path class="st3" d="M6.9,87c38.3,0,76.7,0,115,0c0.1,0.8-0.6,0.4-0.8,0.4c-37.8,0-75.5,0-113.3,0C7.5,87.4,6.9,87.9,6.9,87z"/>
	<path class="st4" d="M37.1,26.4c-2.2,1.6-3.8,2.9-5.6,4c-1.1,0.7-1.1,1.4-0.8,2.4c0.7,1.9,1.3,3.9,2.1,6.4
		c-2.1-1.5-3.8-2.6-5.3-3.8c-1.1-0.9-1.9-0.8-2.9,0.1c-1.5,1.2-3.2,2.3-5.2,3.8c0.8-2.5,1.3-4.5,2-6.4c0.5-1.2,0.1-1.8-0.8-2.4
		c-1.7-1.2-3.3-2.4-5.5-4c2.3,0,4.1-0.1,5.9,0c1.8,0.2,2.9-0.3,3.3-2.3c0.3-1.7,1.1-3.3,1.8-5.6c0.8,2.5,1.5,4.3,2,6.2
		c0.3,1.2,1,1.7,2.3,1.6C32.5,26.3,34.5,26.4,37.1,26.4z"/>
	<path class="st5" d="M49.1,26.5c2.2-0.6,3-1.5,2.2-3.4c1.3,1,2.4,2.2,4,0.5c-0.6,1.5-1.5,3,0.7,4c-1.9-0.4-3.1,0.2-3.7,2
		C51.8,27.2,51.8,27.2,49.1,26.5z"/>
	<path class="st6" d="M56.1,36.4c-1.4,1-1.8,2-1.3,3.9c-1.6-1.5-2.7-0.6-3.9,0.2c0.8-1.7,0.5-2.9-1.3-3.7c1.6-0.2,2.9-0.5,3-3.1
		C53.5,35.7,54,37.1,56.1,36.4z"/>
	<path class="st7" d="M46,21.6c-0.7-2.1-2.2-1.6-4.2-1.1c1.9-1.5,2.4-2.7,0.9-4.2c1.7,0.8,2.9,0.6,4-1c-0.3,1.8,0.2,3,2.4,3.4
		C47.3,19.2,45.8,19.6,46,21.6z"/>
	<path class="st8" d="M42.4,47.3c1.4-1.4,1.5-2.7,0.3-4.2c1.6,0.9,2.8,0.6,3.8-1c-0.2,1.8,0.4,2.8,2.2,3.3c-1.8,0.3-2.6,1.3-2.4,3.1
		C45.2,47.2,44.4,45.8,42.4,47.3z"/>
</g>
</svg>
