<?xml version="1.0" encoding="utf-8"?>
<!-- Generator: Adobe Illustrator 23.0.3, SVG Export Plug-In . SVG Version: 6.00 Build 0)  -->
<svg version="1.1" id="Слой_1" xmlns="http://www.w3.org/2000/svg" xmlns:xlink="http://www.w3.org/1999/xlink" x="0px" y="0px"
	 viewBox="0 0 70 70" style="enable-background:new 0 0 70 70;" xml:space="preserve">
<style type="text/css">
	.st0{fill:#D24A43;}
	.st1{fill:#4990D0;}
	.st2{display:none;fill:#D14B43;}
	.st3{fill:#D14B43;}
	.st4{fill:#DB736E;}
	.st5{fill:#F5D846;}
	.st6{fill:#F2D747;}
	.st7{fill:#F2D647;}
	.st8{fill:#F2D847;}
	.st9{fill:#F1D647;}
	.st10{fill:#FFFFFF;}
	.st11{fill:#FEFEFE;}
	.st12{fill:#FFFEFE;}
	.st13{fill:#373E62;}
	.st14{fill:#4C5A88;}
	.st15{fill:#4C5A89;}
	.st16{fill:#61739D;}
	.st17{fill:#62729D;}
	.st18{fill:#D36E7E;}
	.st19{fill:#CB5264;}
	.st20{fill:#CA5563;}
	.st21{fill:#CB5364;}
	.st22{fill:#D26D7B;}
	.st23{fill:#D26C7A;}
	.st24{fill:#B84F47;}
	.st25{fill:#BC4F45;}
	.st26{fill:#B54F46;}
	.st27{fill:#2C2F4B;}
	.st28{fill:#B15046;}
	.st29{fill:#DC8E99;}
	.st30{fill:#BD4F45;}
	.st31{fill:#6B759F;}
	.st32{fill:#2A2D48;}
	.st33{fill:#2A2D47;}
	.st34{fill:#D8808C;}
	.st35{fill:#B05046;}
	.st36{fill:#2D304C;}
	.st37{fill:#A94F46;}
	.st38{fill:#B24F46;}
	.st39{fill:#B34F46;}
</style>
<g>
	<path class="st0" d="M70,47.3V70l0,0H0V47.3C0,47.3,59.7,47.3,70,47.3z"/>
	<path class="st1" d="M0,47.4C0,40,0,32.6,0,25.2c23.3,0,46.7,0,70,0c0,7.4,0,14.8,0,22.2H0z"/>
</g>
<rect class="st2" width="70" height="70"/>
<g>
	<path class="st3" d="M6.9,87c0-24.8,0-49.5,0-74.3c0-1.5,0.2-2,1.9-2c37.1,0.1,74.2,0.1,111.3,0c1.7,0,1.9,0.5,1.9,2
		c0,24.8,0,49.5,0,74.3c-0.7,0.4-1.5,0.2-2.3,0.2c-36.8,0-73.6,0-110.4,0C8.5,87.2,7.7,87.4,6.9,87z"/>
	<path class="st4" d="M6.9,87c38.3,0,76.7,0,115,0c0.1,0.8-0.6,0.4-0.8,0.4c-37.8,0-75.5,0-113.3,0C7.5,87.4,6.9,87.9,6.9,87z"/>
	<path class="st5" d="M37.1,26.4c-2.2,1.6-3.8,2.9-5.6,4c-1.1,0.7-1.1,1.4-0.8,2.4c0.7,1.9,1.3,3.9,2.1,6.4
		c-2.1-1.5-3.8-2.6-5.3-3.8c-1.1-0.9-1.9-0.8-2.9,0.1c-1.5,1.2-3.2,2.3-5.2,3.8c0.8-2.5,1.3-4.5,2-6.4c0.5-1.2,0.1-1.8-0.8-2.4
		c-1.7-1.2-3.3-2.4-5.5-4c2.3,0,4.1-0.1,5.9,0c1.8,0.2,2.9-0.3,3.3-2.3c0.3-1.7,1.1-3.3,1.8-5.6c0.8,2.5,1.5,4.3,2,6.2
		c0.3,1.2,1,1.7,2.3,1.6C32.5,26.3,34.5,26.4,37.1,26.4z"/>
	<path class="st6" d="M49.1,26.5c2.2-0.6,3-1.5,2.2-3.4c1.3,1,2.4,2.2,4,0.5c-0.6,1.5-1.5,3,0.7,4c-1.9-0.4-3.1,0.2-3.7,2
		C51.8,27.2,51.8,27.2,49.1,26.5z"/>
	<path class="st7" d="M56.1,36.4c-1.4,1-1.8,2-1.3,3.9c-1.6-1.5-2.7-0.6-3.9,0.2c0.8-1.7,0.5-2.9-1.3-3.7c1.6-0.2,2.9-0.5,3-3.1
		C53.5,35.7,54,37.1,56.1,36.4z"/>
	<path class="st8" d="M46,21.6c-0.7-2.1-2.2-1.6-4.2-1.1c1.9-1.5,2.4-2.7,0.9-4.2c1.7,0.8,2.9,0.6,4-1c-0.3,1.8,0.2,3,2.4,3.4
		C47.3,19.2,45.8,19.6,46,21.6z"/>
	<path class="st9" d="M42.4,47.3c1.4-1.4,1.5-2.7,0.3-4.2c1.6,0.9,2.8,0.6,3.8-1c-0.2,1.8,0.4,2.8,2.2,3.3c-1.8,0.3-2.6,1.3-2.4,3.1
		C45.2,47.2,44.4,45.8,42.4,47.3z"/>
</g>
<g>
	<path class="st10" d="M106,70.5c-5.6,0-11.3,0-16.9,0c-0.4-0.4-1-0.5-1.6-0.7c-12.2-6-24.3-12.1-36.4-18.1
		c-0.7-0.4-1.5-1.6-2.6-0.4c-0.2,5.2,0,10.5-0.1,15.7c0,0.9,0.1,1.8-0.2,2.7c-0.1,0.3-0.3,0.5-0.5,0.8c-1.7,0-3.3,0-5,0
		c-0.2-0.3-0.4-0.5-0.5-0.8c-0.4-8.7-0.1-17.3-0.1-26c0-0.6,0.2-1.1,0.6-1.6c0.8-0.6,1.7-0.6,2.6-0.6c19.6,0,39.2,0,58.9,0
		c0.5,0,1,0,1.5,0.2c0.3,0.1,0.6,0.3,0.8,0.5c0,1.7,0,3.3,0,5c-0.2,0.2-0.5,0.3-0.7,0.5c-6,0.5-12,0.1-18,0.2
		c-2.8,0.1-5.5-0.4-8.2,0.3c7.6,4.2,15.5,7.9,23.2,11.8c1,0.5,2,0.9,2.8,1.5c0.4,0.3,0.5,0.8,0.9,1.1c0,0.8,0,1.7,0,2.5
		c-0.2,0.2-0.4,0.3-0.7,0.3c-0.8,0-1.4-0.4-2.1-0.7c-11.2-5.6-22.4-11.1-33.5-16.8c-0.2-0.1-0.4-0.2-0.6-0.3c-2.7-0.4-5.4-0.2-8-0.1
		c0.3,0.3,0.7,0.4,1,0.6c13.6,6.8,27.1,13.5,40.7,20.3c1,0.5,2,0.8,2.8,1.6C106.2,70.1,106.2,70.3,106,70.5z"/>
	<path class="st11" d="M23.8-0.2c1.7,0,3.3,0,5,0C29,0,29.2,0.3,29.3,0.6c0.4,8.6,0.1,17.2,0.1,25.9c0,1.5-0.8,2.3-2.3,2.3
		c-0.6,0-1.2,0-1.7,0c-19,0-38,0-57,0c-0.8,0-1.7,0-2.5-0.2c-0.3-0.1-0.6-0.3-0.8-0.5c0-1.7,0-3.3,0-5c0.2-0.1,0.5-0.2,0.8-0.2
		c9.2,0.1,18.4,0,27.5,0.1c-0.1-0.4-0.5-0.4-0.8-0.6c-9-4.4-17.8-9.1-26.9-13.3c-0.3-0.2-0.4-0.6-0.7-0.9c0-1,0-2,0-3
		c0.2-0.2,0.4-0.3,0.7-0.3c0.6,0,1.1,0.3,1.6,0.5c11.4,5.8,22.9,11.4,34.3,17.2c2.8,0.7,5.7,0.2,8.5,0.4c-0.5-0.1-0.9-0.4-1.3-0.6
		C-5.5,15.2-20,8-34.4,0.8c-0.2-0.2-0.4-0.3-0.6-0.5c0-1.1,0.9-0.5,1.2-0.5c5.2-0.1,10.5,0,15.7,0c10.3,4.6,20.3,10,30.4,15
		c2.9,1.4,5.9,2.6,8.7,4.1c0.6,0.3,1.2,0.7,1.8,0.1c0.5-4.3,0.1-8.6,0.2-12.8c0.1-1.9-0.2-3.8,0.2-5.7C23.5,0.3,23.6,0,23.8-0.2z"/>
	<path class="st12" d="M-18.5,70.5c-1.8,0-3.7,0-5.5,0c-0.1-0.1-0.1-0.2-0.2-0.3c0.1-0.2,0.2-0.4,0.4-0.6c4.9-2.7,10-5,15-7.6
		c9.5-4.7,19-9.5,28.5-14.3c0.2,0.3-0.1-0.2,0.2-0.1c0.2,0.1,0.3-0.2,0.3-0.2c-2.5,0.8-5.1,0.1-7.6,0.4c-1.3,0.1-2.4,0.8-3.5,1.3
		c-12.6,6.2-25.1,12.8-37.7,19c-1.4,0.7-2.8,1.3-4.3,1.9c-0.2,0.1-0.4,0.3-0.6,0.4c-0.8,0-1.7,0.3-1.5-1.3c0.2-2.2,0.1-4.5,0.1-6.7
		c0.4-0.3,0.6-0.7,1.1-1c8.5-4.4,17.2-8.6,25.7-13c0.3-0.2,0.8-0.2,0.9-0.7c-7.8-0.2-15.6,0-23.4-0.1c-1.2,0-2.3,0.1-3.5-0.2
		c-0.3-0.1-0.5-0.3-0.7-0.5c0-1.7,0-3.3,0-5c0.3-0.2,0.5-0.4,0.8-0.5c1.1-0.3,2.1-0.2,3.2-0.2c18.6,0,37.2,0,55.8,0
		c1.3,0,2.7-0.3,3.9,0.5c0.5,0.5,0.6,1.2,0.6,1.8c0,8.6,0.3,17.3-0.1,25.9c-0.1,0.3-0.3,0.6-0.5,0.8c-1.7,0-3.3,0-5,0
		c-0.2-0.2-0.4-0.5-0.5-0.7c-0.5-5-0.1-9.9-0.2-14.9c0-1.2,0.2-2.5-0.2-3.7c-1.1-0.6-1.9,0.3-2.7,0.7C9,57.4-2,63.2-13.2,68.8
		c-1,0.5-1.9,1.1-3,1.2C-17,70-17.8,70-18.5,70.5z"/>
	<path class="st11" d="M105-0.2c0.8,0,1.7-0.3,1.5,1.2c-0.2,2.2,0,4.5,0,6.8c-0.2,0.3-0.4,0.6-0.5,1c-1.6,1.7-3.7,2.5-5.7,3.3
		c-7.3,3-14,7.5-21.2,10.5c9,0.1,17.9-0.3,26.8,0.2c0.2,0.1,0.5,0.3,0.7,0.5c0,1.7,0,3.3,0,5c-0.3,0.2-0.5,0.4-0.8,0.5
		c-1.1,0.3-2.1,0.2-3.2,0.2c-18.6,0-37.2,0-55.8,0c-1.3,0-2.7,0.3-3.9-0.5c-0.5-0.5-0.6-1.2-0.6-1.8c0-8.6-0.3-17.3,0.1-25.9
		c0.1-0.3,0.3-0.6,0.5-0.8c1.7,0,3.3,0,5,0C47.9,0,48,0.3,48.2,0.5c0.5,5.5,0.1,11,0.2,16.6c0,0.9-0.3,1.8,0.4,2.6
		c0.8,0.3,1.5-0.2,2.1-0.5C63.2,12.8,75.7,6.9,88,0.6c0.5-0.3,1.1-0.4,1.5-0.8c2,0,4,0,6,0c0.2,0.2,0.2,0.5,0,0.7
		C94.8,1.2,93.9,1.6,93,2C79.3,8.8,65.7,15.8,52,22.5c2.8,0.1,5.5,0.4,8.2-0.3c1.6-0.7,3.1-1.5,4.7-2.3c0.5-0.3,1.1-0.5,1.6-0.8
		c9.7-4.8,19.4-9.7,29.1-14.6c0.5-0.3,1-0.5,1.5-0.7c0.9-0.4,1.8-0.8,2.6-1.3c0.5-0.2,1-0.5,1.4-0.7c0.6-0.3,1.2-0.6,1.7-0.9
		C103.6,0.5,104.4,0.4,105-0.2z"/>
	<path class="st13" d="M23.4,20.8C15.7,17.1,8,13.5,0.4,9.7c-3.9-1.9-7.7-4.2-11.6-6.2c-1.9-1-3.9-1.8-5.9-2.6
		c-0.6-0.2-0.6-0.7-0.9-1.1c0.2,0,0.3,0,0.5,0c0.9,0.5,1.8,0.2,2.7,0.2c11.8,0,23.7,0,35.5,0c0.9,0,1.8-0.2,2.7,0.2
		C23.7,7.1,23.7,13.9,23.4,20.8z"/>
	<path class="st14" d="M23.8,70c0,0.2,0,0.3,0,0.5c-14.1,0-28.2,0-42.3,0c0.5-0.7,1.1-1.1,2-1c11.9-0.7,23.9-0.2,35.8-0.3
		c1.2,0,2.5-0.1,3.7,0.3C23.3,69.6,23.6,69.8,23.8,70z"/>
	<path class="st14" d="M47.7,0.3c0-0.2,0-0.3,0-0.5c13.9,0,27.9,0,41.8,0c-0.2,0.5-0.5,0.9-1.1,1c-4,0.5-8.1,0.2-12.1,0.3
		c-8.1,0-16.2,0-24.3,0c-1.2,0-2.3,0.1-3.4-0.3C48.2,0.7,48,0.5,47.7,0.3z"/>
	<path class="st15" d="M47.7,70.5c0-0.2,0-0.3,0-0.5c0.2-0.2,0.5-0.4,0.8-0.5c1.2-0.4,2.5-0.3,3.7-0.3c10.4,0,20.7,0,31.1,0
		c1.6,0,3.1,0.3,4.7,0.4c0.6,0.1,1,0.3,1,0.9C75.3,70.5,61.5,70.5,47.7,70.5z"/>
	<path class="st14" d="M23.3,0.3c-12.7,0-25.3,0-38,0c-0.9,0-2,0.4-2.8-0.5c13.8,0,27.5,0,41.3,0c0,0.2,0,0.3,0,0.5
		C23.7,0.5,23.5,0.5,23.3,0.3z"/>
	<path class="st16" d="M-34.9,47.1c0.2,0,0.3,0,0.5,0c0.2,0.2,0.4,0.5,0.5,0.8c0.4,4.7,0.4,9.5,0,14.2c-0.2,0.5-0.7,0.4-1,0.4
		C-34.9,57.4-34.9,52.2-34.9,47.1z"/>
	<path class="st16" d="M106.5,62.5c-0.3-0.1-0.8,0.1-0.9-0.5c-0.6-4.7-0.5-9.4-0.1-14.1c0.1-0.3,0.3-0.5,0.5-0.8c0.2,0,0.3,0,0.5,0
		C106.5,52.2,106.5,57.4,106.5,62.5z"/>
	<path class="st17" d="M106,8.2c0.2-0.2,0.3-0.3,0.5-0.5c0,5.1,0,10.3,0,15.4c-0.2,0-0.3,0-0.5,0.1c-0.2-0.3-0.4-0.5-0.5-0.8
		C105.2,17.7,104.5,12.9,106,8.2z"/>
	<path class="st16" d="M-34.5,23.3l-0.2,0l-0.2-0.2c0-5,0-10,0-14.9c0.2,0.2,0.3,0.3,0.5,0.5c0.6,0.7,0.7,1.5,0.7,2.3
		c0,3.7,0.2,7.4-0.1,11.1c-0.1,0.3-0.2,0.6-0.4,0.9C-34.3,23.1-34.4,23.2-34.5,23.3z"/>
	<path class="st18" d="M-34.4,42.1c-0.2,0-0.4,0-0.5,0c0-4.6,0-9.3,0-13.9c0.2,0,0.4,0.1,0.6,0.1c0.2,0.2,0.3,0.5,0.4,0.8
		c0.1,0.3,0.1,0.6,0.2,0.9c0,3.8,0.3,7.6-0.2,11.5C-34.1,41.6-34.2,41.9-34.4,42.1z"/>
	<path class="st18" d="M105.9,28.3c0.2,0,0.4-0.1,0.6-0.1c0,4.6,0,9.3,0,13.9c-0.2,0-0.4,0-0.5,0c-0.2-0.2-0.3-0.5-0.5-0.8
		c-0.5-3.8-0.2-7.6-0.2-11.5c0-0.3,0.1-0.6,0.2-0.9C105.5,28.7,105.7,28.5,105.9,28.3z"/>
	<path class="st19" d="M42.7-0.2c0,0.2,0,0.3,0,0.5c-0.2,0.2-0.5,0.4-0.7,0.5C38.1,1.3,34.3,1,30.5,1c-0.3,0-0.6-0.1-0.9-0.2
		c-0.3-0.1-0.5-0.3-0.7-0.5c0-0.2-0.1-0.4-0.1-0.6C33.4-0.2,38.1-0.2,42.7-0.2z"/>
	<path class="st19" d="M28.8,70.5c0-0.2,0.1-0.4,0.1-0.6c0.2-0.2,0.5-0.3,0.7-0.4c0.3-0.1,0.6-0.1,0.9-0.2c3.8,0,7.6-0.3,11.4,0.2
		c0.3,0.1,0.5,0.3,0.7,0.5c0,0.2,0,0.3,0,0.5C38.1,70.5,33.4,70.5,28.8,70.5z"/>
	<path class="st20" d="M-23.9,70.1c0.1,0.2,0,0.3-0.1,0.4c-3.2,0-6.3,0-9.5,0c0-0.2,0-0.4,0-0.5C-30.2,69.2-27,68.4-23.9,70.1z"/>
	<path class="st21" d="M95.5,0.2c0-0.1,0.1-0.3,0-0.4c3,0,6,0,9,0c0.1,1-0.8,0.7-1.3,1C100.6,1,97.9,1.7,95.5,0.2z"/>
	<path class="st22" d="M106,70.5c-0.1-0.1-0.1-0.3-0.1-0.5c-0.9-1.7-1-3.3,0-4.9c0.2,0,0.4,0,0.5-0.1
		C106.2,66.8,107.1,68.8,106,70.5z"/>
	<path class="st23" d="M-34.4,5.2c-0.2,0-0.4,0-0.5,0c0-1.7,0-3.3,0-5c0.2,0,0.3,0.1,0.5,0.1C-33.4,2-33.4,3.6-34.4,5.2z"/>
	<path class="st24" d="M103.4,0.3c0.4-0.1,0.8-0.1,1-0.6c0.2,0,0.3,0,0.5,0c0.3,1.6-1.2,1.1-1.8,1.6c-0.3,0.1-0.6,0.1-0.7-0.3
		C102.4,0.4,103.2,0.6,103.4,0.3z"/>
	<path class="st13" d="M88,69.6c-0.6,0.7-1.4,0.4-2.1,0.4c-12.6,0-25.2,0-37.7,0c-0.4-6.7-0.3-13.3-0.1-20c3.3,0.6,5.9,2.6,8.8,4
		C67.3,59.1,77.7,64.4,88,69.6z"/>
	<path class="st13" d="M105.9,47.6c0,4.2,0,8.4,0,12.6c0,0.6,0.2,1.3-0.4,1.8c-4.6-2.3-9.3-4.6-13.9-6.9c-3.4-1.7-6.7-3.3-10.1-4.9
		c-1-0.5-1.6-1.7-2.9-1.6c-0.4-1.7,1-1.2,1.7-1.2c3.7-0.1,7.4-0.1,11.1,0C96.2,47.4,101.1,47.1,105.9,47.6z"/>
	<path class="st25" d="M105.9,65.1c0,1.6,0,3.3,0,4.9c-7.2-3.1-14-6.9-21-10.3c-7.6-3.8-15.2-7.7-22.8-11.6c0.4-1.1,1.3-1,2.2-1
		c1.9,0,3.9-0.1,5.8,0.1C82,53.1,94,59.1,105.9,65.1z"/>
	<path class="st26" d="M105.9,41.6c0.1,0.2,0.1,0.3,0,0.5c-18.1,0-36.1,0-54.2,0.1c-3,0-6,0-8.9,0c0-0.2-0.1-0.3-0.1-0.5
		c0.7-0.9,1.8-0.9,2.7-0.9c19.2,0,38.4,0,57.6,0C104.1,40.8,105.1,40.8,105.9,41.6z"/>
	<path class="st27" d="M105.9,47.6c-8.3,0-16.6,0-24.9,0c-0.9,0-2.1-0.5-2.4,0.9c-0.6-0.2-1.5-0.3-1.4-1.1c0-0.8,0.9-0.5,1.4-0.5
		c9.1,0,18.3,0.1,27.4,0.1C106,47.2,106,47.4,105.9,47.6z"/>
	<path class="st26" d="M42.7,70l-0.2,0l-0.2,0c-0.9-0.9-0.8-2.1-0.8-3.3c0-7.1,0-14.2,0-21.2c0-1.2-0.4-2.7,1.3-3.3
		c0,0,0.1,0.1,0.1,0.1C42.8,51.5,42.7,60.7,42.7,70z"/>
	<path class="st27" d="M48.1,50c0,6.7,0,13.3,0.1,20c0,0-0.2,0-0.2,0s-0.2,0-0.2,0c0-6.4-0.1-12.7-0.1-19.1
		C47.6,50.5,47.6,50.1,48.1,50z"/>
	<path class="st28" d="M70.1,47.2c-1.5,0.8-3.2,0.3-4.7,0.4c-1.1,0.1-2.3-0.1-3.3,0.6c-0.6-0.2-1.2-0.4-1.9-0.6
		c0-0.4,0.2-0.7,0.5-0.6c3.1,0.1,6.3-0.3,9.4,0.2L70.1,47.2z"/>
	<path class="st29" d="M70.1,47.1c-3.3,0.4-6.7-0.5-9.9,0.5c-0.5-0.3-0.6-0.8-0.1-0.8C63.5,46.8,66.8,46.1,70.1,47.1z"/>
	<path class="st30" d="M42.7,42.1c-0.8,0.7-0.5,1.7-0.5,2.6c0,8.4,0,16.9,0,25.3c-4.1,0-8.3,0-12.4,0c-0.5-1.7-0.2-3.4-0.2-5.2
		c0-6.5,0-13.1,0-19.6c0-0.8-0.1-1.6,0.1-2.1c-0.3,0.3-0.1,1-0.1,1.6c0,7.6,0,15.2,0,22.9c0,0.8,0.2,1.7-0.2,2.4c-0.1,0-0.3,0-0.4,0
		c0-9.2-0.1-18.5-0.1-27.7c-0.8-0.6-1.8-0.3-2.6-0.3c-19.3,0-38.5,0-57.8,0c-0.9,0-1.8,0.2-2.7-0.2c0-4.1,0-8.3,0-12.4
		c0.6-0.4,1.3-0.2,1.9-0.2c19.6,0,39.2,0,58.7,0c0.6,0,1.3-0.1,1.5,0c-0.4-0.2-1.2,0-1.9,0c-19.2,0-38.3,0-57.5,0
		c-0.9,0-1.8,0.2-2.7-0.2c0-0.1,0-0.3,0-0.4c20.1,0,40.3-0.1,60.4,0c2.2,0,2.9-0.5,2.8-2.8c-0.1-8.4,0-16.7,0-25.1
		c0.1,0,0.3,0,0.4,0c0.5,1.7,0.2,3.4,0.2,5.2c0,6.5,0,13.1,0,19.6c0,0.8-0.2,1.5,0.2,2.3c0.2,0.3,0.3-0.3,0.1,0
		c-0.1,0.1-0.2,0.1-0.2-0.1c0-0.3-0.1,0.1-0.1-0.2c0-6-0.1-12.1,0-18.1c0-2.9-0.3-5.8,0.2-8.6c4.1,0,8.3,0,12.4,0
		c0.5,1.5,0.2,3.1,0.2,4.7c0,6.9,0,13.9,0,20.8c0,0.8-0.3,1.7,0.3,2.4c20,0,40.1,0,60.1,0.1c1,0,2,0,3,0.1c0,0.1,0,0.3,0,0.4
		c-0.9,0.5-1.8,0.2-2.7,0.2c-19.2,0-38.3,0-57.5,0c-0.8,0-1.6-0.2-2.3,0.2c-0.3,0.2,0.2,0.3,0,0.1c-0.1-0.1-0.1-0.2,0.1-0.2
		c0.6-0.2,1.1-0.1,1.7-0.1c19.6,0,39.2,0,58.8,0c0.7,0,1.3-0.2,1.9,0.2c0,4.1,0,8.3,0,12.4c-20.1,0-40.2,0-60.3,0
		C44.6,41.6,43.5,41.3,42.7,42.1z"/>
	<path class="st25" d="M-34.4,5.2c0-1.6,0-3.2,0-4.9c5.3,2,10.2,4.9,15.3,7.4c9.5,4.7,19,9.6,28.5,14.4c-0.4,1.1-1.4,1-2.2,1
		c-1.8,0-3.6,0-5.3,0c-0.1,0-0.3,0-0.4,0C-10.5,17.2-22.5,11.2-34.4,5.2z"/>
	<path class="st13" d="M-34.4,22.7c0-4.7,0-9.3,0-14c2.9,0.3,5.1,2.1,7.6,3.4c6.6,3.3,13.4,6.3,19.8,10.1c-0.1,1.1-1,1-1.6,1
		c-8.1,0-16.2,0-24.4,0C-33.5,23.2-34,23-34.4,22.7z"/>
	<path class="st31" d="M-6,22.7c0.7,0.1,1.5-0.4,2,0.9c-1.1,0-2,0-2.9,0c-8.3,0-16.6,0-25,0c-0.9,0-1.8,0.3-2.7-0.3
		c0-0.1,0.1-0.2,0.1-0.2c8.2-0.3,16.5-0.1,24.7-0.1C-8.5,23-7.2,22.9-6,22.7z"/>
	<path class="st32" d="M-6,22.7c-0.5,0.7-1.2,0.4-1.8,0.4c-8.9,0-17.7,0-26.6,0c-0.1-0.1-0.1-0.3,0-0.4c8.3,0,16.6,0,24.8,0
		c0.9,0,1.8,0.3,2.6-0.5C-6.6,22.2-6.1,22-6,22.7z"/>
	<path class="st33" d="M23.3,0.3c0.2,0,0.3,0,0.5,0c0,6.5,0.1,13,0.1,19.6c0,0.4-0.1,0.8-0.6,0.9C23.4,13.9,23.3,7.1,23.3,0.3z"/>
	<path class="st34" d="M10.9,23.2c0.2,0,0.5-0.1,0.7,0c0.3,0.2,0.1,0.5-0.2,0.5c-3.3-0.2-6.7,0.5-10-0.4c0,0-0.1-0.1-0.1-0.1L1.4,23
		C4.6,23,7.7,22.7,10.9,23.2z"/>
	<path class="st35" d="M10.9,23.2c-3.2,0-6.3-0.1-9.5-0.1c1.7-0.7,3.4-0.2,5.1-0.3c1-0.1,2,0,2.9-0.5C9.8,22.6,10.6,22.5,10.9,23.2z
		"/>
	<path class="st13" d="M23.3,70c-12.5,0-25,0-37.5,0c-0.8,0-1.7,0.3-2.3-0.5c5.7-2.8,11.4-5.6,17-8.6c2.3-1.3,4.7-2.6,7.3-3.6
		c2.9-1.1,5.5-3,8.4-4.3c2.4-1,4.7-2.3,7.1-3.5c0.6,2.9,0.2,5.9,0.2,8.8C23.5,62.3,23.8,66.1,23.3,70z"/>
	<path class="st13" d="M-33.9,62.1c-0.8-0.5-0.5-1.3-0.5-2c0-4.2,0-8.3,0-12.5c2.6-0.5,5.3-0.2,7.9-0.2c5.9-0.1,11.9,0,17.8,0
		c0.9,0,2-0.4,2.7,0.7c-6.4,3.3-12.9,6.6-19.3,9.8C-28.2,59.3-31.1,60.7-33.9,62.1z"/>
	<path class="st25" d="M-23.9,70.1c-3.2-0.1-6.4-0.1-9.6-0.2c6.4-3.2,12.8-6.5,19.2-9.7C-5.8,56,2.6,51.8,11,47.6
		c0.4-0.2,0.9-0.3,1.4-0.5c1.7,0.5,3.5,0.1,5.3,0.2c0.9,0.1,1.8-0.2,2.4,0.8c-8.8,4.5-17.5,8.9-26.3,13.4c-0.7,0.4-1.5,0.6-2.2,1
		c-3,0.8-5.5,2.5-8.2,3.8C-19.2,67.5-21.7,68.4-23.9,70.1C-23.9,70.1-23.9,70.1-23.9,70.1z"/>
	<path class="st26" d="M-34.4,41.6c20.1,0,40.2,0,60.4,0c0.9,0,2-0.4,2.8,0.6c-20.1,0-40.1,0-60.2,0c-1,0-2,0-3-0.1
		C-34.5,41.9-34.4,41.8-34.4,41.6z"/>
	<path class="st36" d="M-6,48.1c-1-0.6-2.1-0.5-3.1-0.5c-8.4,0-16.8,0-25.3,0c-0.1-0.2-0.1-0.3,0-0.5C-25.2,47-16,47-6.8,47
		C-6.2,47-4.6,46.6-6,48.1z"/>
	<path class="st26" d="M-23.9,70.1c0.1-0.8,0.8-1,1.4-1.3c4.1-2.1,8.3-4.2,12.4-6.2c0.5-0.2,1-0.8,1.5-0.1
		C-13.6,65.2-18.6,67.9-23.9,70.1z"/>
	<path class="st33" d="M23.3,70c0-6.8,0-13.6,0-20.3c0.7,0,0.7,0.5,0.7,1c0,6.4-0.1,12.9-0.2,19.3C23.7,70,23.5,70,23.3,70z"/>
	<path class="st37" d="M20,48.2c-1.5-0.9-3.2-0.4-4.8-0.6c-0.9-0.1-2,0.4-2.8-0.5c3.2,0,6.3,0,9.6,0C21.6,48.1,20.3,47.3,20,48.2z"
		/>
	<path class="st13" d="M48.2,0.3c12.6,0,25.1,0,37.7,0c0.9,0,1.8-0.1,2.6,0.5c-5.7,3-11.4,6-17.2,8.9c-6.8,3.4-13.7,6.8-20.5,10.2
		c-0.7,0.3-1.2,0.8-2,0.8c-0.4-0.2-0.7-0.5-0.7-0.9C48.1,13.2,47.7,6.8,48.2,0.3z"/>
	<path class="st25" d="M103.4,0.3c0.1,0.4-1.2,0.4-0.3,1c-0.4,0.5-1.1,0.7-1.7,0.9c-0.6-0.1-1.1,0.1-1.4,0.6
		c-0.7,0.8-1.7,1.1-2.6,1.4c-0.6-0.1-1.1,0-1.4,0.6c-7.8,4-15.5,7.9-23.3,11.8c-2,1-4.1,2-6.2,3c-0.6-0.1-1.1,0-1.3,0.6
		c-1.4,1-3,1.8-4.6,2.3c-2.5,0.5-5,0.2-7.5,0.3c-0.6,0-1.1-0.1-1.4-0.7c9.5-4.8,19-9.6,28.5-14.4c5.1-2.5,10.2-5,15.3-7.5
		C98.1,0.3,100.8,0.3,103.4,0.3z"/>
	<path class="st13" d="M106,8.2c0,4.8,0,9.7,0,14.5c-3,0.5-6.1,0.2-9.2,0.2c-5.4,0.1-10.8,0-16.2,0c-0.7,0-1.7,0.6-2-0.7
		c0.6-0.5,1.3-0.9,2-1.2c7.6-3.7,15.1-7.5,22.6-11.3C104.1,9.2,105,8.7,106,8.2z"/>
	<path class="st33" d="M78.6,22.2c0.8,0.8,1.7,0.4,2.6,0.4c8.3,0,16.5,0,24.8,0c0,0.2,0,0.4,0,0.5c-8,0-16.1,0.1-24.1,0.1
		c-1.9,0-3.8,0-5.8,0C76.6,22.3,77.4,22,78.6,22.2z"/>
	<path class="st26" d="M42.8,28.1c-1-0.7-0.6-1.7-0.6-2.5c0-8.4,0-16.9,0-25.3c0.2,0,0.3-0.1,0.5,0C42.7,9.6,42.8,18.9,42.8,28.1z"
		/>
	<path class="st27" d="M48.2,0.3c0,5.8,0,11.6,0,17.5c0,1-0.1,2,0.5,2.9c-0.9,0.8-1.1,0.5-1.1-0.6c0-4.1,0-8.2,0-12.3
		c0-2.5,0.1-4.9,0.1-7.4C47.9,0.3,48,0.3,48.2,0.3z"/>
	<path class="st35" d="M51.7,22.2c2.6,0.9,5.2,0.5,7.8,0.3c0.4,0,0.8-0.2,1.1,0.2c-1.4,1.3-3.1,0.6-4.7,0.7c-2,0.1-4.1,0-6.8,0
		C50.4,22.6,50.9,22.1,51.7,22.2z"/>
	<path class="st38" d="M65.3,20.3c0-0.9,0.3-1,1.3-0.6C66.2,20,65.8,20.3,65.3,20.3z"/>
	<path class="st39" d="M96.1,4.8c0-1.2,0.6-1.2,1.4-0.6C97.1,4.6,96.7,4.9,96.1,4.8z"/>
	<path class="st39" d="M100.1,2.8c0-1.1,0.6-1.2,1.4-0.6C101.1,2.6,100.7,2.9,100.1,2.8z"/>
	<path class="st26" d="M-34.3,28.7c20.9,0,41.7,0,62.6,0c0,0.2,0,0.3,0,0.5c-20.9,0-41.8,0-62.6,0C-34.4,29-34.3,28.8-34.3,28.7z"/>
	<path class="st26" d="M105.9,29.2c-20.9,0-41.8,0-62.6,0c0-0.2,0-0.3,0-0.5c20.9,0,41.7,0,62.6,0C105.9,28.8,105.9,29,105.9,29.2z"
		/>
	<path class="st26" d="M29.8,0.3c0,9.1,0,18.2,0,27.3c-0.2,0-0.3,0-0.5,0c0-9.1,0-18.2,0-27.2C29.5,0.4,29.6,0.4,29.8,0.3z"/>
	<path class="st26" d="M29.3,69.9c0-9.1,0-18.2,0-27.2c0.2,0,0.3,0,0.5,0c0,9.1,0,18.2,0,27.3C29.6,69.9,29.5,69.9,29.3,69.9z"/>
</g>
</svg>
