<svg xmlns="http://www.w3.org/2000/svg" width="75" height="75" viewBox="0 0 75 75">
  <defs>
    <style>
      .cls-1 {
        fill: #121214;
        fill-rule: evenodd;
      }
    </style>
  </defs>
  <path id="ticket" class="cls-1" d="M7803.7,1691.26l2.85-2.84,13.91,13.89-2.85,2.85Zm-6.54,6.56,2.85-2.85,13.91,13.9-2.85,2.85Zm55.41-19.77-4.67-4.66a2.144,2.144,0,0,0-2.52-.32,6.872,6.872,0,0,1-9.49-9.47,2.041,2.041,0,0,0-.31-2.53l-4.67-4.66a4.968,4.968,0,0,0-6.95,0l-43.54,43.5a4.95,4.95,0,0,0,0,6.95l21.73,21.71a4.968,4.968,0,0,0,6.95,0l43.55-43.5A5.133,5.133,0,0,0,7852.57,1678.05Zm-2.93,4.02-11.85,11.84-3.24-3.23-2.85,2.84,3.24,3.23-28.84,28.82a0.865,0.865,0,0,1-1.18,0l-21.74-21.71a0.865,0.865,0,0,1,0-1.18l28.85-28.82,3.24,3.24,2.84-2.84-3.24-3.24,11.86-11.84a0.845,0.845,0,0,1,1.18,0l3.64,3.63a10.922,10.922,0,0,0,14.38,14.37l3.63,3.63A0.77,0.77,0,0,1,7849.64,1682.07Zm-25.07,4.33,2.85-2.84,4.97,4.96-2.85,2.85Zm-7.17-7.05,2.85-2.85,4.98,4.97-2.85,2.84Z" transform="translate(-7779 -1655)"/>
</svg>
