<svg xmlns="http://www.w3.org/2000/svg" width="60" height="60" viewBox="0 0 60 60">
  <defs>
    <style>
      .cls-1 {
        fill: #121214;
        fill-rule: evenodd;
      }
    </style>
  </defs>
  <path id="write" class="cls-1" d="M7797.5,1939H7835a7.5,7.5,0,0,0,7.5-7.5V1924a2.5,2.5,0,0,0-5,0v7.5a2.5,2.5,0,0,1-2.5,2.5h-37.5a2.5,2.5,0,0,1-2.5-2.5V1894a2.5,2.5,0,0,1,2.5-2.5h7.5a2.5,2.5,0,0,0,0-5h-7.5a7.5,7.5,0,0,0-7.5,7.5v37.5A7.5,7.5,0,0,0,7797.5,1939Zm52.5-57.5a2.5,2.5,0,0,0-2.5-2.5h-5a35.038,35.038,0,0,0-35,35v3.96l-6.77,6.77a2.5,2.5,0,0,0,3.54,3.54l6.77-6.77H7815a35.005,35.005,0,0,0,26.15-11.79,2.5,2.5,0,0,0,.13-3.17l-3.67-5a0.08,0.08,0,0,1,.09-0.05h7.3a2.5,2.5,0,0,0,2.3-1.54,34.883,34.883,0,0,0,2.7-13.45v-5Zm-5,5a29.869,29.869,0,0,1-1.72,10h-5.58a5.108,5.108,0,0,0-4.08,8.17l2.4,3.19a30.025,30.025,0,0,1-21.02,8.64h-2.5V1914a30.037,30.037,0,0,1,30-30h2.5v2.5Z" transform="translate(-7790 -1879)"/>
</svg>
