<svg xmlns="http://www.w3.org/2000/svg" width="256" height="256"><path fill-opacity=".38" d="M0 128.004v128.004l128.25-.254 128.25-.254.254-127.75L257.008 0H0v128.004m.485.496c0 70.4.119 99.053.265 63.672.146-35.38.146-92.98 0-128C.604 29.153.485 58.1.485 128.5" fill="#1976D2" fill-rule="evenodd"/><path fill-opacity=".159" d="M15.153 2.821C9.999 3.314 3.476 10.31 2.807 16.062c-.284 2.441-.245 27.157.088 54.925.587 49.01.662 50.499 2.555 50.862 2.361.454 12.438-1.859 13.156-3.02.281-.456 1.187-.829 2.013-.829.825 0 5.186-1.8 9.691-4 28.144-13.746 49.495-32.844 60.052-53.717C92.886 55.292 93 54.373 93 39.056c0-15.994.002-16.012 2.512-17.656 1.829-1.198 3.987-1.523 7.939-1.196 8.716.723 8.549.298 8.549 21.802 0 18.61.018 18.766 2.25 19.364 4.08 1.093 17.293.687 18.55-.57.842-.842 1.2-6.446 1.2-18.809 0-13.205.338-18.07 1.35-19.455 1.935-2.647 11.713-3.38 15.138-1.136C152.99 23.039 153 23.11 153 38.353c0 17.354.494 19.197 9.295 34.701 11.28 19.87 26.899 33.697 45.741 40.494 8.899 3.21 20.9 4.397 30.097 2.977 7.516-1.16 14.093-3.464 15.254-5.342.235-.38.579-22.515.765-49.189l.337-48.498-2.284-3.208c-1.257-1.765-3.711-4.224-5.455-5.466l-3.171-2.258-112.54-.032c-61.896-.018-114.045.112-115.886.289M232 28.902c0 .496-1.434 1.402-3.187 2.013-2.459.858-2.916 1.382-2 2.298.653.653 1.187 2.442 1.187 3.976 0 2.262.425 2.765 2.25 2.664 1.238-.068 3.037.21 4 .619 1.21.513 1.75.288 1.75-.73 0-.81.955-2.686 2.121-4.169l2.122-2.697-2.089-.546c-1.148-.3-2.358-1.397-2.688-2.438-.599-1.886-3.466-2.705-3.466-.99M28 44.212c0 3.364-.537 4.641-2.661 6.335C22.49 52.819 22.824 55 26.02 55c2.356 0 5.98 3.75 5.98 6.189 0 2.791 2.308 2.135 4.203-1.195C37.585 57.567 38.567 57 41.394 57c4.459 0 5.256-1.358 2.703-4.604-1.626-2.067-1.912-3.467-1.429-6.99.572-4.173-.578-5.979-2.168-3.406-.922 1.492-6.721 1.147-8.941-.532C28.574 39.211 28 39.654 28 44.212m164.573 9.282c-1.226 2.277-2.622 3.511-3.98 3.52-3.538.023-6.593 1.157-6.593 2.448 0 .675.929 2.069 2.064 3.096 1.755 1.588 1.966 2.588 1.407 6.655-.721 5.241-.616 5.331 4.19 3.593 2.897-1.048 3.796-.918 7.321 1.064L201 76.128v-4.475c0-3.745.49-4.887 3-7 3.895-3.277 3.784-4.415-.511-5.221-3.783-.71-4.453-1.365-5.989-5.857-1.406-4.114-2.743-4.136-4.927-.081m-79.352 27.348c-.962.611-1.21 4.268-1 14.735l.279 13.923 9.852.287c6.261.183 10.349-.124 11.213-.841 1.081-.897 1.235-3.835.747-14.288-.363-7.772-1.064-13.459-1.713-13.893-1.496-1-17.783-.935-19.378.077m40.547 4.747c-.302.501-.902 11.261-1.334 23.911-.595 17.439-1.031 22.335-1.802 20.25l-1.018-2.75h-25.725c-14.149 0-26.437.273-27.307.607-.87.334-1.656 1.571-1.747 2.75-.342 4.454-1.605-18.409-1.718-31.107-.132-14.89-.81-16.026-5.676-9.5-1.538 2.063-4.454 5.585-6.481 7.828l-3.684 4.078-.669 13.422c-.367 7.382-.969 15.222-1.337 17.422l-.67 4-.712-5c-.392-2.75-.752-9.162-.8-14.25-.058-6.086-.47-9.25-1.204-9.25-.613 0-4.161 2.025-7.884 4.5-3.723 2.475-7.255 4.5-7.849 4.5-2.05 0-3.151 3.891-3.166 11.184-.011 5.093-.31 6.86-.985 5.816-.533-.825-.976-3.582-.985-6.128-.02-6.079-1.603-7.454-6.717-5.831-2.089.662-4.579 1.599-5.534 2.082-.955.482-2.53.884-3.5.892-.97.008-3.66.675-5.977 1.482-2.346.817-5.67 1.217-7.5.901-2.209-.381-2.85-.256-1.953.379 1.076.762 1.012 1.068-.332 1.584-3.286 1.261-5.462.594-6.893-2.111-1.252-2.367-1.55-2.506-2.139-1-.376.963-.426 2.423-.11 3.246.393 1.024-.679 2.136-3.393 3.521L3 135.041v11.004c0 10.668.073 11.032 2.379 11.909 2.198.836 2.315 1.231 1.543 5.225-.459 2.377-.854 5.816-.878 7.642-.024 1.827-.719 3.997-1.544 4.822-2.292 2.292-2.215 36.145.084 37.028 1.211.464 1.286.791.321 1.388-.882.545-1.395 4.955-1.701 14.611-.408 12.849-.284 14.091 1.741 17.518 1.198 2.028 3.752 4.616 5.674 5.75 3.476 2.05 4.142 2.062 117.973 2.062 106.993 0 114.656-.114 117.193-1.737 3.428-2.193 4.299-3.074 6.612-6.682 1.67-2.606 1.817-4.422 1.366-16.957-.326-9.056-.903-14.171-1.625-14.411-.744-.248-.619-.875.371-1.865 2.198-2.197 2.19-34.506-.009-36.705-.825-.825-1.52-2.995-1.544-4.822-.024-1.826-.419-5.265-.878-7.642-.774-4.003-.659-4.388 1.569-5.235l2.404-.914-.276-15.625-.275-15.626-4.5-.238c-6.097-.323-6.988.158-7.07 3.816-.039 1.729-.457 4.043-.93 5.143-.649 1.51-.877.852-.93-2.686l-.07-4.685-10.458-.315-10.457-.314-.314 4.5-.314 4.5-.859-4c-1.125-5.239-2.238-6.5-5.734-6.5-1.59 0-3.673-.395-4.628-.877-3.336-1.686-9.232-3.244-10.143-2.68-.506.312-1.234 2.478-1.619 4.812-1.218 7.394-2.41 7.755-2.459.745-.025-3.575-.384-7.032-.797-7.681-1.142-1.797-16.075-11.319-17.749-11.319-1.125 0-1.469 1.371-1.469 5.849 0 8.835-1.195 21.149-2.004 20.649-.393-.244-1.042-7.728-1.441-16.633l-.725-16.191-4.165-4.985c-8.145-9.748-10.355-11.999-10.897-11.1M121.204 205.7c-3.857 1.152-5.213 2.019-4.988 3.191.232 1.212 2.034 1.78 7.296 2.303 3.843.382 7.361.325 7.816-.128.456-.452.681-2.115.5-3.694-.405-3.548-2.984-3.954-10.624-1.672" fill="#1976D2" fill-rule="evenodd"/><path fill-opacity=".511" d="M10.922 5.274c-1.856 1.25-4.447 3.838-5.758 5.75L2.781 14.5l.454 51.761c.25 28.469.702 52.009 1.004 52.311 1.636 1.636 9.351.266 18.307-3.25 28.784-11.303 55.486-33.41 66.361-54.946C91.969 54.314 92 54.098 92 38.699V23.145l2.635-2.072c3.658-2.878 12.072-2.878 15.73 0L113 23.145V60h20V23.145l2.635-2.072c4.286-3.372 15.002-2.564 17.6 1.327.404.605.741 7.496.75 15.312.016 15.481.956 19.497 7.312 31.256 12.944 23.946 32.872 40.042 55.778 45.052 8.74 1.912 25.368.941 31.019-1.811l4.595-2.237.655-15.145c.361-8.33.656-29.857.656-47.838 0-32.35-.024-32.729-2.274-36.067-1.25-1.856-3.792-4.398-5.648-5.648L242.704 3H14.296l-3.374 2.274M231.362 28.5c-.317.825-1.626 1.5-2.91 1.5-2.776 0-4.124 1.728-2.565 3.287.612.612 1.113 2.598 1.113 4.413 0 2.93.308 3.302 2.75 3.314 1.512.007 3.762.285 5 .616 1.774.476 2.25.188 2.25-1.36 0-1.08.9-3.002 2-4.27 2.536-2.924 2.529-4-.025-4-1.239 0-2.393-.969-2.975-2.5-1.05-2.762-3.74-3.342-4.638-1M27.667 39.667c-.367.366-.667 2.42-.667 4.564 0 3.121-.61 4.412-3.06 6.473-3.383 2.846-3.107 3.523 2.114 5.188 2.699.861 3.857 1.972 4.814 4.621 1.48 4.091 3.71 4.507 5.313.99 1.034-2.27 5.737-4.48 9.569-4.497 1.935-.009 1.478-2.49-.847-4.593-1.779-1.611-2.001-2.617-1.465-6.655.605-4.566.531-4.758-1.845-4.758-1.361 0-2.753.45-3.093 1-.974 1.575-3.461 1.176-6.227-1-2.724-2.142-3.556-2.383-4.606-1.333m164.752 12.519c-2.152 4.199-3.073 4.78-7.61 4.799-4.852.02-5.378 1.186-2.223 4.935 2.32 2.757 2.526 3.629 1.913 8.085-.771 5.608-.068 6.053 6.056 3.839 2.799-1.012 3.591-.876 6.357 1.093 4.44 3.162 6.055 2.237 5.345-3.06-.523-3.894-.295-4.482 2.698-6.98 3.892-3.249 3.65-4.776-.992-6.28-2.449-.793-4.038-2.255-5.484-5.043-2.656-5.121-3.99-5.427-6.06-1.388M113 95v13h20V82h-20v13m-27.75-.055L79 102.371V156h6.031c3.922 0 6.201-.44 6.514-1.258.266-.691.364-16.099.219-34.24L91.5 87.52l-6.25 7.425m69.5-6.371c-.917.928-1.004 52.705-.103 61.325l.647 6.192 5.603-.295 5.603-.296.233-27 .234-27-3.734-4.111c-2.053-2.262-4.633-5.341-5.733-6.843-1.1-1.502-2.338-2.389-2.75-1.972M63.5 114.686c-9.13 6.353-8.5 4.623-8.5 23.347 0 12.159.341 17.004 1.25 17.757.991.82 7.143.944 14 .282.412-.039.75-10.197.75-22.572 0-17.388-.284-22.477-1.25-22.397-.687.057-3.5 1.669-6.25 3.583m111.731 18.564l.269 22.25h15l.273-17.687.273-17.687-7.054-4.563c-3.88-2.51-7.499-4.563-8.042-4.563-.629 0-.89 8.083-.719 22.25M40.5 125.686c-2.2.811-9.85 2.984-17 4.828-7.15 1.844-14.462 3.931-16.25 4.639L4 136.438v18.302l4.25 1.172c2.718.749 10.559 1.066 21.75.88l17.5-.292v-15.986c0-17.857.18-17.475-7-14.828m158.167-1.019c-.367.366-.667 7.558-.667 15.981 0 17.56-.498 16.76 10.053 16.161l5.447-.309v-27.997l-6.5-2.24c-7.263-2.502-7.401-2.529-8.333-1.596m50.083 3.061l-3.75.393v13.773c0 7.575.231 14.004.513 14.286.283.282 2.083.022 4-.578l3.487-1.091v-13.756c0-7.565-.113-13.679-.25-13.587-.137.093-1.937.345-4 .56M222.2 130.2c-.795.795-1.2 5.111-1.2 12.8 0 7.689.405 12.005 1.2 12.8 1.72 1.72 13.252 1.565 14.715-.197 1.354-1.632 1.261-22.097-.113-24.853-.692-1.388-2.17-1.75-7.137-1.75-3.539 0-6.787.522-7.465 1.2m-108.751 1.073c-.285.742-.39 6.497-.234 12.788l.285 11.439h19v-25l-9.267-.288c-7.059-.219-9.39.034-9.784 1.061M7.204 178.26c-2.525.809-3.115 1.428-2.518 2.648.428.876.925 7.104 1.103 13.842.255 9.583.041 12.251-.982 12.254-.719.002.166.902 1.967 2 2.934 1.788 5.014 1.993 20 1.967 16.989-.03 39.836-1.333 44.681-2.549 1.77-.444 2.479-1.152 2.112-2.109C72.437 203.369 84.644 185 87.731 185c1.401 0 2.875-4.727 1.808-5.797-1.732-1.736-77.163-2.6-82.335-.943m180.551-.264c-12.509.363-22.995.911-23.302 1.218-.307.307 1.153 1.596 3.244 2.865 4.332 2.628 12.248 10.796 12.281 12.671.012.688.389 1.25.838 1.25 1.444 0 5.4 8.065 4.898 9.984-.352 1.348.197 2.028 2.005 2.482 4.58 1.149 27.612 2.475 43.507 2.505 13.987.026 16.088-.192 19-1.967 1.801-1.098 2.712-1.998 2.024-2-1.739-.005-1.792-25.551-.055-26.624.756-.468-.069-1.195-2.25-1.983-3.808-1.376-24.05-1.506-62.19-.401M7.235 229.944c-3.788 8.131-4.127 12.318-1.165 14.393 1.508 1.056 1.712 1.593.75 1.977-.726.291-.308.564.93.607 1.238.043 2.25.556 2.25 1.138 0 .582-.52.738-1.155.346-.691-.428-.883-.276-.48.377.371.6 2.085 1.795 3.809 2.655C14.96 252.827 27.85 253 128.5 253c100.65 0 113.54-.173 116.326-1.563 1.724-.86 3.438-2.055 3.809-2.655.403-.653.211-.805-.48-.377-.635.392-1.155.236-1.155-.346s1.012-1.095 2.25-1.138c1.238-.043 1.656-.316.93-.607-.962-.384-.758-.921.75-1.977 2.962-2.075 2.623-6.262-1.165-14.393L246.529 223h-13.106c-12.928 0-47.199 2.066-67.175 4.05-7.035.699-10.858.694-12.184-.016-1.063-.569-5.717-1.034-10.343-1.034-7.306 0-8.661.279-10.316 2.121-1.755 1.954-2.571 2.07-10.349 1.479-5.31-.403-9.058-1.197-10.098-2.138-1.326-1.2-4.615-1.476-16.556-1.389-8.196.059-24.352-.601-35.902-1.468s-27.532-1.583-35.515-1.591L10.471 223l-3.236 6.944" fill="#1976D2" fill-rule="evenodd"/><path fill-opacity=".277" d="M14.5 5c-.34.55-1.413 1-2.385 1C9.946 6 6 10.036 6 12.255c0 .895-.45 1.905-1 2.245-.55.34-1 4.668-1 9.618 0 4.956.397 8.755.884 8.454 1.342-.83 3.098 24.277 4.686 67.018l.672 18.091 3.361-1.155c1.848-.636 3.668-1.464 4.045-1.841.377-.377 1.735-.685 3.019-.685 1.283 0 2.333-.45 2.333-1s-.675-1-1.5-1-1.5-.265-1.5-.59c0-.897 4.358-4.339 5.542-4.377.573-.018 3.029-2.058 5.458-4.533 2.429-2.475 4.928-4.5 5.553-4.5s1.952-.9 2.947-2c.995-1.1 2.592-2 3.548-2s2.015-.722 2.353-1.604c.339-.882 1.245-1.362 2.013-1.067.769.295 2.204-.355 3.189-1.443.985-1.089 3.39-2.709 5.344-3.6 1.954-.892 4.228-2.16 5.053-2.819 1.632-1.304 7-2.827 7-1.986 0 .285-.937 1.456-2.083 2.602-1.146 1.146-1.802 2.365-1.459 2.709.807.806 15.658-14.621 19.35-20.099 5.368-7.966 6.024-10.442 6.674-25.202.846-19.223 1.046-20.195 4.513-21.989 6.299-3.257 17.181-.921 18.404 3.952.29 1.154.582 9.399.651 18.322.068 8.923.422 16.255.787 16.292.365.038 4.263.135 8.663.216l8 .148.5-17.805.5-17.806 2.806-2.41c2.264-1.946 3.905-2.407 8.5-2.389 8.515.033 10.41 1.895 11.335 11.135.404 4.039.763 11.421.797 16.406.052 7.538.483 9.935 2.562 14.245 1.375 2.85 2.5 5.634 2.5 6.187 0 .553.45 1.005 1 1.005s1 .52 1 1.156c0 .635 1.125 2.63 2.5 4.433s2.5 3.784 2.5 4.403c0 .619.43.86.956.535.526-.325.721-1.206.432-1.958-.823-2.145 1.55-2.935 3.504-1.167.971.879 2.673 1.598 3.782 1.598s2.831.9 3.826 2c1.22 1.348 3.08 2 5.705 2 2.142 0 5.222.687 6.845 1.526 1.622.839 2.95 1.219 2.95.845 0-.375.787-.049 1.75.724 2.775 2.228 6.094 3.905 7.728 3.905.828 0 2.067.9 2.754 2 .687 1.1 1.986 2 2.886 2 .9 0 2.197.675 2.882 1.5s1.795 1.5 2.467 1.5c.673 0 2.038.9 3.033 2 .995 1.1 2.327 2 2.959 2 .632 0 2.675 1.575 4.541 3.5 1.866 1.925 3.979 3.5 4.696 3.5.717 0 1.304.398 1.304.883 0 .486.928 1.126 2.062 1.423 1.311.343 1.948 1.204 1.75 2.366-.263 1.543.486 1.874 4.815 2.126l5.126.298.667-15.798c2.002-47.455 3.316-65.579 4.695-64.727.487.301.885-3.278.885-7.953 0-4.675-.45-8.778-1-9.118-.55-.34-1-1.287-1-2.104C251 10.471 246.529 6 244.604 6c-.817 0-1.764-.45-2.104-1-.391-.633-10.771-.948-28.309-.858-15.23.078-25.891.426-23.691.774 6.468 1.022-24.51 2.077-61 2.077-36.454 0-67.092-1.035-61.5-2.077 1.925-.359-9.186-.712-24.691-.784-17.86-.084-28.417.234-28.809.868m216.862 22.5c-.317.825-1.54 1.507-2.719 1.515-1.179.009-2.782.42-3.564.915-1.22.772-1.204 1.231.113 3.24.956 1.459 1.347 3.614 1.037 5.722l-.496 3.381 3.556-.667c2.099-.394 3.816-.245 4.192.363 1.2 1.942 4.519 1.162 4.519-1.061 0-1.151.9-3.237 2-4.635 2.584-3.285 2.52-4.104-.375-4.831-1.306-.328-2.871-1.686-3.478-3.019-1.233-2.707-3.903-3.222-4.785-.923M27 42.304c0 3.618-.566 4.852-3.553 7.748l-3.553 3.443 2.164 1.753c1.19.963 3.126 1.754 4.303 1.756 1.593.003 2.611 1.152 3.988 4.5C31.366 63.977 32.581 66 33.048 66c.468 0 2.033-1.551 3.479-3.446 2.141-2.808 3.4-3.503 6.792-3.75 5.004-.365 6.014-2.757 2.667-6.318-1.905-2.029-2.102-3.005-1.496-7.411.643-4.674.536-5.075-1.349-5.075-1.126 0-3.16.507-4.52 1.127-2.051.934-3.063.763-5.915-1C27.788 37.088 27 37.389 27 42.304m164.656 9.64c-2.356 3.56-3.075 3.974-7.374 4.25-5.686.365-6.478 2.064-2.802 6.012 2.827 3.036 3.055 4.673 1.319 9.472-1.829 5.059-.092 6.232 5.925 4.003 4.577-1.697 4.774-1.689 7.448.288 1.511 1.117 3.665 2.031 4.788 2.031 1.804 0 2.04-.631 2.04-5.443 0-4.976.255-5.595 2.969-7.198 1.632-.964 3.215-2.397 3.517-3.183.817-2.129-1.366-4.176-4.453-4.176-2.948 0-6.033-2.689-6.033-5.257 0-1.666-2.555-4.743-3.939-4.743-.437 0-1.97 1.775-3.405 3.944M170 79c0 .55.477 1 1.059 1s.781-.45.441-1-.816-1-1.059-1-.441.45-.441 1M34.813 106.683c.721.289 1.584.253 1.916-.079.332-.332-.258-.568-1.312-.525-1.165.048-1.402.285-.604.604m-5.063 1.979c.688.278 1.813.278 2.5 0 .688-.277.125-.504-1.25-.504s-1.937.227-1.25.504m-5.277 2.294c.325.526 1.252.703 2.059.393 2.067-.793 1.824-1.349-.591-1.349-1.132 0-1.793.43-1.468.956" fill="#1976D2" fill-rule="evenodd"/></svg>